<?xml version="1.0" standalone="no"?>
<!DOCTYPE svg PUBLIC "-//W3C//DTD SVG 1.1//EN" "http://www.w3.org/Graphics/SVG/1.1/DTD/svg11.dtd" >
<svg xmlns="http://www.w3.org/2000/svg" xmlns:xlink="http://www.w3.org/1999/xlink" version="1.1">
<metadata></metadata>
<defs>
<font id="kontrapunkt_mikibold" horiz-adv-x="1230" >
<font-face units-per-em="2048" ascent="1638" descent="-410" />
<missing-glyph horiz-adv-x="464" />
<glyph horiz-adv-x="0" />
<glyph horiz-adv-x="682" />
<glyph unicode=" "  horiz-adv-x="464" />
<glyph unicode="&#x09;" horiz-adv-x="464" />
<glyph unicode="&#xa0;" horiz-adv-x="464" />
<glyph unicode="!" horiz-adv-x="587" d="M131 143q0 67 47.5 113.5t114.5 46.5q68 0 116 -46.5t48 -113.5t-48 -113t-116 -46q-67 0 -114.5 46t-47.5 113zM141 1438h305l-22 -543l-41 -432h-178l-41 432z" />
<glyph unicode="&#x22;" horiz-adv-x="808" d="M100 1438h240l-37 -533h-168zM469 1438h240l-37 -533h-166z" />
<glyph unicode="#" horiz-adv-x="1359" d="M12 395v172h176q90 0 107 82l47 234l-244 -4v170h187q46 0 72 20t36 64l62 305h196l-69 -389h221q46 0 71.5 19.5t34.5 61.5l62 308h196l-67 -389h239v-150l-266 -4l-57 -328h241v-149l-268 -4l-74 -414h-231l82 410l-299 -7l-72 -403h-231l80 399zM487 561h226 q46 0 71.5 20t34.5 64l49 252l-319 -6z" />
<glyph unicode="$" horiz-adv-x="1191" d="M84 256l94 143q159 -140 348 -176v398q-51 19 -86 33.5t-82 37.5t-78 45t-65 54t-54 66.5t-33 80.5t-13 98q0 89 35 161t94.5 118.5t131 73.5t150.5 34v172h166v-180q222 -37 369 -203l-107 -118q-111 102 -262 129v-351q52 -18 88.5 -32.5t84 -38t80.5 -47t67.5 -57.5 t55.5 -71.5t34.5 -87.5t13.5 -108q0 -93 -36 -169t-96.5 -125.5t-135 -79t-156.5 -36.5v-213h-166v220q-127 21 -245.5 83.5t-196.5 145.5zM365 1094q0 -55 41 -92t120 -70v293q-70 -12 -115.5 -45t-45.5 -86zM692 217q172 18 172 162q0 60 -44.5 102t-127.5 78v-342z" />
<glyph unicode="%" horiz-adv-x="1652" d="M111 1083q0 170 93.5 269.5t233.5 99.5t234 -100t94 -269q0 -171 -93.5 -268.5t-234.5 -97.5t-234 97.5t-93 268.5zM285 1083q0 -101 40.5 -153.5t112.5 -52.5t112 52.5t40 153.5q0 100 -40.5 154.5t-111.5 54.5t-112 -54.5t-41 -154.5zM287 0l911 1438h219l-913 -1438 h-217zM948 352q0 169 94 269t234 100t234 -100t94 -269q0 -171 -93.5 -268.5t-234.5 -97.5t-234.5 97.5t-93.5 268.5zM1122 352q0 -101 41 -154t113 -53t111.5 53t39.5 154q0 100 -40 154.5t-111 54.5q-72 0 -113 -54.5t-41 -154.5z" />
<glyph unicode="&#x26;" horiz-adv-x="1470" d="M86 414q0 135 80.5 232.5t198.5 137.5q16 5 16 21q0 15 -21 24q-86 42 -140 112.5t-54 168.5q0 82 42.5 149t112.5 108.5t156 64t178 22.5q142 0 251.5 -50t180.5 -124l-104 -113q-124 105 -276 105q-110 0 -179 -49t-69 -136q0 -91 70.5 -148.5t189.5 -57.5h20v-170h-32 q-137 0 -230.5 -75t-93.5 -198q0 -114 99 -190t278 -76q171 0 276 70t105 180t-84 184q-97 -86 -111 -108q-33 -46 -22 -131l-136 -31q-26 45 -33 97t11 108q12 32 41.5 68.5t54.5 59.5t72 63t63 54q132 116 166 185q30 59 15 131l133 24q52 -100 24 -208q-17 -67 -127 -177 q-16 -13 -16 -24q0 -16 14 -23q72 -47 117 -120.5t45 -167.5q0 -126 -84 -223.5t-228 -149t-323 -51.5q-106 0 -201 16.5t-177 51.5t-141.5 85t-93.5 121.5t-34 157.5z" />
<glyph unicode="'" horiz-adv-x="440" d="M100 1440h240l-37 -535h-168z" />
<glyph unicode="(" horiz-adv-x="759" d="M55 616v19q0 301 140.5 545t396.5 399l96 -133q-163 -122 -267 -335t-104 -482v-6q0 -268 104.5 -481.5t266.5 -336.5l-96 -133q-256 155 -396.5 399t-140.5 545z" />
<glyph unicode=")" horiz-adv-x="753" d="M66 -195q163 122 266.5 335.5t103.5 482.5v6q0 269 -103 482t-265 335l96 133q255 -155 394.5 -399t139.5 -545v-19q0 -301 -139.5 -545t-394.5 -399z" />
<glyph unicode="*" horiz-adv-x="1056" d="M70 1178l69 208l293 -139l-35 318h219l-32 -318l290 139l72 -208l-319 -70l227 -242l-176 -133l-170 289l-172 -287l-176 131l227 242z" />
<glyph unicode="+" horiz-adv-x="1370" d="M121 545v198h463v471h202v-471h463v-198h-463v-469h-202v469h-463z" />
<glyph unicode="," horiz-adv-x="403" d="M23 -193q161 52 178 140q8 36 -5.5 52.5t-45.5 29.5q-93 46 -93 131q0 61 41 101t111 40q76 0 121 -56t45 -149q0 -59 -17 -114.5t-53 -108t-101 -93t-151 -61.5z" />
<glyph unicode="-" horiz-adv-x="903" d="M131 453v200h641v-200h-641z" />
<glyph unicode="." horiz-adv-x="505" d="M90 141q0 67 47.5 113.5t114.5 46.5q68 0 116 -46.5t48 -113.5q0 -66 -48 -111.5t-116 -45.5q-66 0 -114 45.5t-48 111.5z" />
<glyph unicode="/" horiz-adv-x="1003" d="M-23 -287l760 1868h219l-761 -1868h-218z" />
<glyph unicode="0" horiz-adv-x="1208" d="M37 721q0 -216 68 -383.5t195.5 -261.5t295.5 -94q166 0 293.5 94t195.5 261.5t68 383.5q0 215 -67.5 380.5t-194.5 258t-295 92.5q-170 0 -297.5 -92.5t-194.5 -258t-67 -380.5zM328 719q0 252 71 393t197 141q125 0 195.5 -141.5t70.5 -392.5q0 -255 -70.5 -396 t-195.5 -141q-128 0 -198 140.5t-70 396.5z" />
<glyph unicode="1" d="M106 -2v164l355 18q57 3 57 64v762q0 70 -5 79q-3 5 -7 7q-16 8 -53 -13q-122 -57 -273 -82l-28 119q156 41 270.5 118t169.5 187l10 21h184v-1198q0 -61 60 -64l328 -18v-164q-532 11 -1068 0z" />
<glyph unicode="2" d="M82 1169q96 143 242.5 218t300.5 75q93 0 176 -29t147 -83.5t101.5 -140.5t37.5 -193q0 -351 -593 -740q-28 -18 -25 -34q4 -13 35 -13l659 11v-240h-1079v158q87 68 141.5 110t126.5 100.5t116 98t98 90.5t85.5 89.5t65 85t51 87t28.5 84.5t11 88q0 119 -70 186.5 t-178 67.5q-99 0 -192.5 -53t-159.5 -148z" />
<glyph unicode="3" d="M66 203l100 153q203 -161 414 -161q139 0 226 74.5t87 201.5q0 117 -73 191.5t-199 74.5q-147 0 -265 -112l-114 145l458 406q17 17 15 26q-4 10 -25 10h-553v226h928v-181l-365 -307q-21 -16 -16 -28q4 -11 33 -11q81 6 162 -21.5t143 -80.5q67 -58 106 -143.5 t39 -190.5q0 -119 -46 -215t-124.5 -156t-178.5 -92t-212 -32q-150 0 -297 64t-243 159z" />
<glyph unicode="4" d="M45 319v181q196 202 326.5 460.5t187.5 512.5h277q-33 -221 -173 -471.5t-329 -442.5q-21 -17 -12 -35q4 -14 36 -14h465q45 0 45 47v399h267v-956h-267v272q0 47 -45 47h-778z" />
<glyph unicode="5" d="M68 203l98 155q95 -76 204.5 -120.5t207.5 -44.5q140 0 227.5 78t87.5 208q0 123 -77 201t-204 78q-84 1 -158.5 -38t-125.5 -110l-164 95l84 733h848l-4 -230h-656l-30 -270q-6 -35 4 -41q11 -8 34 6q111 62 240 62q133 0 243 -58.5t176 -169t66 -252.5 q0 -118 -44.5 -215t-120 -159.5t-174 -96.5t-209.5 -34q-145 0 -295.5 59.5t-257.5 163.5z" />
<glyph unicode="6" d="M80 666q0 155 37 286t99 222.5t145 156t174 95t186 30.5q76 0 146 -16.5t120 -42.5t82 -48.5t55 -45.5l-100 -144q-19 16 -50.5 34.5t-93.5 38t-124 19.5q-140 0 -250 -99.5t-144 -283.5q-9 -40 7 -45q11 -7 43 21q124 106 295 106q196 0 323 -127q139 -133 139 -346 q0 -113 -42 -210t-119 -165q-68 -61 -159.5 -93t-189.5 -32q-129 0 -240 48t-186 141q-153 186 -153 500zM350 565q3 -102 31 -178q32 -96 104 -151.5t164 -55.5q119 0 186.5 80.5t67.5 202.5q0 134 -74 211q-69 69 -184 69q-101 0 -178 -53q-82 -57 -117 -125z" />
<glyph unicode="7" d="M119 1208v230h1038v-146q-151 -156 -269 -377t-183 -459.5t-68 -455.5h-301q21 306 156 606.5t352 544.5q17 21 21.5 30t0.5 17q-1 3 -3 4.5t-4.5 2.5t-4.5 2t-7 1h-7.5h-9h-9.5h-702z" />
<glyph unicode="8" d="M63 387q0 109 56 196t162 146q26 16 26 29t-24 30q-156 118 -156 293q0 92 43 166.5t114.5 121t159.5 71t183 24.5q92 0 175.5 -22.5t150.5 -65.5t107 -112.5t40 -155.5q0 -174 -162 -295q-25 -17 -25 -33q0 -12 27 -28q116 -65 173.5 -152t57.5 -211 q-1 -126 -75.5 -221.5t-196.5 -144t-272 -48.5q-153 0 -279.5 47t-205.5 142t-79 223zM315 406q0 -114 87 -180t223 -68q125 0 196.5 60t71.5 159q0 40 -15 72t-38 55t-68 48t-87 43.5t-114 47.5l-30 12l-64 25q-162 -122 -162 -274zM403 1106q0 -45 14.5 -77.5t49.5 -59.5 t75 -46t109 -46q37 -13 86 -33q137 115 137 246q0 93 -64 145.5t-171 52.5q-103 0 -169.5 -49.5t-66.5 -132.5z" />
<glyph unicode="9" d="M98 940q0 151 67.5 270t183.5 183.5t259 64.5q180 0 306.5 -91t188.5 -251t62 -375q0 -387 -192 -589q-82 -86 -190 -129t-226 -43q-120 0 -236.5 44.5t-197.5 112.5l88 152q153 -103 315 -103q153 0 251.5 102t119.5 271q3 34 -10 39q-13 8 -39 -16q-117 -105 -285 -105 q-164 0 -289 92q-82 60 -129 155.5t-47 215.5zM365 967q0 -130 77 -201q73 -70 185 -70q84 0 157 38.5t115 109.5q0 116 -28 206t-92.5 147.5t-160.5 57.5q-115 0 -184 -83.5t-69 -204.5z" />
<glyph unicode=":" horiz-adv-x="526" d="M90 143q0 67 47.5 113.5t114.5 46.5q68 0 116 -46.5t48 -113.5t-48 -113t-116 -46q-67 0 -114.5 46t-47.5 113zM90 711q0 66 48 111.5t114 45.5q68 0 116 -45.5t48 -111.5q0 -67 -48 -113.5t-116 -46.5q-67 0 -114.5 46.5t-47.5 113.5z" />
<glyph unicode=";" horiz-adv-x="530" d="M78 -190q157 51 178 139q5 24 -3 40.5t-18.5 23t-30.5 15.5q-5 2 -7 3q-93 47 -93 131q0 60 40.5 100.5t109.5 40.5q76 0 122 -56.5t44 -148.5q0 -59 -17 -114.5t-52.5 -108t-100 -93t-150.5 -61.5zM86 711q0 66 48 111.5t116 45.5q66 0 114 -45.5t48 -111.5 q0 -67 -47.5 -113.5t-114.5 -46.5q-68 0 -116 46.5t-48 113.5z" />
<glyph unicode="&#x3c;" horiz-adv-x="1214" d="M100 543v207l963 430v-199l-768 -336l768 -334v-200z" />
<glyph unicode="=" horiz-adv-x="1486" d="M182 299v201h1123v-201h-1123zM182 778v201h1123v-201h-1123z" />
<glyph unicode="&#x3e;" horiz-adv-x="1214" d="M152 111v200l768 336l-768 334v199l962 -430v-207z" />
<glyph unicode="?" horiz-adv-x="1116" d="M51 1247q92 98 221.5 155.5t268.5 57.5q223 0 358 -100q162 -121 162 -334q0 -172 -129.5 -286t-327.5 -136l-14 -168h-195l-26 293q199 3 305 82t106 207q0 121 -80.5 187.5t-207.5 66.5q-89 0 -175 -36.5t-157 -102.5zM330 143q0 67 48 113.5t116 46.5t114.5 -46.5 t46.5 -113.5t-46.5 -113t-114.5 -46t-116 46t-48 113z" />
<glyph unicode="@" horiz-adv-x="2209" d="M141 461q0 182 56.5 338.5t153.5 267.5t225.5 190t273 117.5t295.5 38.5q191 0 357 -60.5t283.5 -167.5t185 -259.5t67.5 -329.5q0 -163 -54.5 -296.5t-157.5 -212.5t-237 -79q-204 0 -256 168q-40 -74 -119.5 -122t-189.5 -48q-94 0 -171.5 38.5t-125.5 101.5t-74 140 t-26 158q0 198 124 336t310 138q142 0 239 -97q14 -12 27 -12q17 0 27 35l14 41h193l-33 -598q-6 -140 104 -140q95 0 161.5 122.5t66.5 299.5q0 151 -55.5 279t-152 215t-229 135.5t-284.5 48.5q-117 0 -228.5 -30.5t-212.5 -95.5t-177 -157.5t-120.5 -225t-44.5 -289.5 q0 -160 54.5 -295t149.5 -227t226 -143.5t281 -51.5q168 0 302.5 39t207.5 92l72 -121q-83 -66 -240 -117t-348 -51q-192 0 -359 59.5t-292 170.5t-197 280.5t-72 376.5zM883 446q-3 -116 50 -194t152 -78q69 0 119 50t74.5 127t26.5 171q3 112 -47 174t-136 62 q-102 0 -168 -87.5t-71 -224.5z" />
<glyph unicode="A" horiz-adv-x="1495" d="M31 0l575 1438h283l575 -1438h-301l-155 403h-598l-156 -403h-223zM483 592h451l-184 477q-28 86 -39 129h-4q-17 -70 -39 -129z" />
<glyph unicode="B" horiz-adv-x="1400" d="M162 0v1438h606q242 0 375 -111q121 -98 121 -258q0 -112 -66 -188q-56 -67 -156 -105q-14 -6 -14 -18q0 -14 16 -17q117 -29 189 -104q92 -92 92 -240q0 -187 -138.5 -292t-379.5 -105h-645zM446 195h310q128 0 201 60.5t73 164.5q0 107 -72.5 165t-199.5 58h-312v-448z M446 825h279q120 0 187 54t67 155q0 103 -68 157t-190 54h-275v-420z" />
<glyph unicode="C" horiz-adv-x="1417" d="M80 717q0 217 89.5 386t250.5 262t368 93q83 0 161 -20t131.5 -46.5t107.5 -67t79.5 -65t55.5 -57.5l-125 -131q-161 178 -373 178q-203 0 -324.5 -146t-121.5 -386q0 -236 125.5 -382.5t333.5 -146.5q57 0 112 13.5t91 30t75.5 44.5t55 42t38.5 36l121 -131 q-33 -38 -77 -74t-111.5 -77t-159.5 -66.5t-192 -25.5q-152 0 -283 52.5t-225.5 147t-148.5 233.5t-54 304z" />
<glyph unicode="D" horiz-adv-x="1521" d="M166 0v1438h471q372 0 573 -176q108 -94 169 -236t61 -309t-63.5 -309.5t-172.5 -237.5q-204 -170 -567 -170h-471zM451 193h180q248 0 375 124q133 136 133 400q0 265 -138 403q-128 125 -370 125h-180v-1052z" />
<glyph unicode="E" horiz-adv-x="1253" d="M166 0v1438h979v-199h-694v-395h624v-205h-624v-436h694v-203h-979z" />
<glyph unicode="F" horiz-adv-x="1153" d="M166 0v1438h932v-201h-649v-426h604v-203h-604v-608h-283z" />
<glyph unicode="G" horiz-adv-x="1568" d="M80 711q0 166 54.5 306t150.5 236.5t229.5 150.5t288.5 54q78 0 150.5 -15t126.5 -39t101.5 -53t79.5 -58t55 -53t34 -39l10 -15l-141 -123q-1 1 -12 13.5t-22.5 24t-33 30t-43.5 34.5t-54 32.5t-64.5 28.5t-74.5 19.5t-86 7.5q-210 0 -329 -148t-119 -388 q0 -152 50.5 -271t149.5 -188.5t232 -69.5q151 0 258 78q47 35 71.5 76.5t24.5 106.5l2 282h267v-731h-197l-29 94q-14 37 -36 37q-20 0 -64 -33q-162 -118 -358 -118q-139 0 -262 52.5t-214 146.5t-143.5 232t-52.5 300z" />
<glyph unicode="H" horiz-adv-x="1597" d="M166 0v1438h285v-600h696v600h285v-1438h-285v635h-696v-635h-285z" />
<glyph unicode="I" horiz-adv-x="661" d="M186 0v1438h289v-1438h-289z" />
<glyph unicode="J" horiz-adv-x="929" d="M8 53l60 174q100 -39 190 -39q103 0 162 59t59 183v1008h285v-1014q0 -116 -36 -203.5t-99 -138t-139 -74.5t-164 -24q-85 0 -170 19.5t-148 49.5z" />
<glyph unicode="K" horiz-adv-x="1470" d="M166 0v1438h285v-561q0 -107 -15 -189q96 132 262 311q254 279 408 439h270l-442 -480q-27 -28 -34.5 -54t0 -51t30.5 -60l512 -793h-326l-352 551q-55 87 -55 168l-113 -127q-48 -55 -69 -83.5t-42.5 -70t-28.5 -85.5t-7 -109v-244h-283z" />
<glyph unicode="L" horiz-adv-x="1161" d="M166 0v1438h285v-1235h669v-203h-954z" />
<glyph unicode="M" horiz-adv-x="1855" d="M166 0v1438h313l412 -705q32 -53 57 -106q27 58 56 108l380 703h308v-1438h-285v991q0 31 4 121q-30 -68 -47 -102l-385 -703h-148l-401 694q-23 44 -53 113q4 -98 4 -133v-981h-215z" />
<glyph unicode="N" horiz-adv-x="1540" d="M152 0v1438h280l690 -942q39 -60 62 -103l-6 129v916h211v-1438h-246l-733 1008q-14 16 -54 86q4 -82 4 -99v-995h-208z" />
<glyph unicode="O" horiz-adv-x="1587" d="M80 719q0 218 91 386.5t253.5 260.5t370.5 92q207 0 369 -92t252.5 -260.5t90.5 -386.5t-91 -386.5t-253 -260.5t-368 -92q-207 0 -370 92t-254 260.5t-91 386.5zM379 717q0 -238 109.5 -386.5t304.5 -148.5q196 0 305.5 148.5t109.5 386.5q0 154 -44.5 273.5t-139 192 t-227.5 72.5q-197 0 -307.5 -149.5t-110.5 -388.5z" />
<glyph unicode="P" horiz-adv-x="1331" d="M166 0v1438h577q256 0 398 -127q137 -121 137 -330q0 -201 -127 -322q-140 -137 -408 -137h-290v-522h-287zM453 715h254q128 0 201 75t73 189q0 117 -72.5 191.5t-201.5 74.5h-254v-530z" />
<glyph unicode="Q" horiz-adv-x="1581" d="M80 721q0 217 91 385t253.5 260t370.5 92q207 0 369 -92t252.5 -260t90.5 -385q0 -297 -163 -495.5t-429 -237.5q-22 -4 -22 -17q0 -8 12 -14l115 -41q18 -7 50.5 -20t47 -18t39 -14.5t38.5 -13t32.5 -8.5t33 -6.5t29.5 -1.5q66 0 119 53l94 -96q-15 -33 -42 -66 t-77.5 -62t-107.5 -30q-66 0 -139 21t-185 65q-18 7 -61.5 25t-61.5 24.5t-48 16.5t-53 13.5t-46 2.5q-67 0 -135 -59l-96 92q21 47 70.5 95.5t113.5 64.5q-251 50 -403 246t-152 481zM379 719q0 -239 110 -389t304 -150q196 0 305.5 149.5t109.5 389.5q0 154 -44.5 272.5 t-139 190t-227.5 71.5q-132 0 -227.5 -69.5t-143 -189t-47.5 -275.5z" />
<glyph unicode="R" horiz-adv-x="1454" d="M166 0v1438h616q245 0 379 -113q123 -108 123 -289q0 -123 -70.5 -214.5t-185.5 -129.5q-16 -6 -16 -16q0 -12 22 -25q51 -33 87.5 -85t76.5 -138l197 -428h-318q-77 187 -164 383q-25 62 -47.5 98.5t-54.5 61.5q-55 39 -188 39h-172v-582h-285zM451 776h270 q133 0 200.5 66.5t67.5 167.5q0 105 -66 170t-204 65h-268v-469z" />
<glyph unicode="S" horiz-adv-x="1273" d="M63 211l105 147q94 -72 226 -125t263 -53q111 0 179.5 46t68.5 136q0 42 -20.5 78t-42 57.5t-78 48.5t-82.5 36.5t-102 35.5q-25 9 -37 13q-91 32 -142.5 53t-118.5 62t-106 90q-67 86 -67 221q0 125 70 217.5t183 138t250 45.5q91 0 178 -20t153.5 -53t114 -65.5 t83.5 -66.5l-107 -135q-181 144 -401 144q-111 0 -177.5 -45t-66.5 -121q0 -38 17.5 -69t38 -50.5t69 -41t77 -31t95.5 -30.5q10 -3 15.5 -4.5t14 -4.5t15.5 -5q79 -26 128 -44.5t111 -53t103 -74.5q113 -110 113 -291q0 -131 -71.5 -227t-185.5 -142t-253 -46 q-180 0 -353.5 70.5t-259.5 158.5z" />
<glyph unicode="T" horiz-adv-x="1329" d="M20 1245v193h1287v-193h-500v-1245h-287v1245h-500z" />
<glyph unicode="U" horiz-adv-x="1497" d="M141 549v889h293v-883q0 -194 86.5 -286.5t265.5 -92.5q359 0 359 383v879h217v-891q0 -271 -157.5 -419t-442.5 -148q-293 0 -457 146.5t-164 422.5z" />
<glyph unicode="V" horiz-adv-x="1437" d="M25 1438h290l392 -1073q18 -50 38 -121h5q13 48 41 121l395 1073h229l-557 -1438h-283z" />
<glyph unicode="W" horiz-adv-x="2078" d="M27 1438h295l299 -1057q15 -49 26 -105h4l29 107l192 637q18 60 23.5 79t10.5 55q2 17 2 33q0 17 -2 31q-6 28 -19 74l-43 146h297l313 -1059q8 -30 27 -103h4q23 91 26 103l320 1059h229l-448 -1438h-312l-266 838l-18 -64l-240 -774h-311z" />
<glyph unicode="X" horiz-adv-x="1443" d="M33 0l461 655q29 45 29 76q0 33 -34 80l-444 627h334l305 -434q11 -17 31.5 -47.5t23.5 -34.5q18 30 54 79l303 437h260l-426 -611q-30 -45 -29 -76q0 -30 27 -69l485 -682h-336l-344 492l-47 71q-7 -14 -22.5 -37.5t-20.5 -33.5l-338 -492h-272z" />
<glyph unicode="Y" horiz-adv-x="1343" d="M18 1438h314l323 -555q46 -90 60 -123h6q28 74 53 121l307 557h242l-446 -789q-26 -44 -36 -84.5t-10 -99.5v-465h-288v459q0 65 -7 100.5t-30 71.5z" />
<glyph unicode="Z" horiz-adv-x="1241" d="M53 0v156l711 1009q19 26 63 78h-757v195h1085v-150l-704 -1005l-64 -80h801l-2 -203h-1133z" />
<glyph unicode="[" horiz-adv-x="663" d="M92 -309v1865h514v-122l-280 -41h-4v-1538h4l280 -41v-123h-514z" />
<glyph unicode="\" horiz-adv-x="968" d="M131 1581h217l645 -1581h-219z" />
<glyph unicode="]" horiz-adv-x="663" d="M59 -186l281 41h4v1538h-4l-281 41v122h514v-1865h-514v123z" />
<glyph unicode="^" horiz-adv-x="1052" d="M70 752l366 692h178l369 -692h-192l-269 516l-270 -516h-182z" />
<glyph unicode="_" horiz-adv-x="976" d="M29 -100h919v-189h-919v189z" />
<glyph unicode="`" horiz-adv-x="1273" d="M23 1841h256l118 -309h-141z" />
<glyph unicode="a" horiz-adv-x="1134" d="M86 238q0 116 75.5 187t237.5 116q58 16 82.5 23.5t64 20.5t55.5 23t35 25t25.5 32.5t6.5 39.5v8q0 70 -37 104q-42 39 -127 39t-166 -33q-44 -17 -83 -41t-54 -39l-84 138q18 18 64.5 46t99.5 50q140 65 294 65q180 0 269 -92q90 -94 90 -301v-395q0 -56 22 -78 q19 -22 60 -22q29 0 57 8l23 -133q-72 -45 -168 -45q-123 0 -195 82q-18 22 -35 22q-14 -2 -43 -20q-43 -27 -73.5 -42.5t-84 -29.5t-112.5 -14q-131 0 -215 67.5t-84 188.5zM344 268q0 -56 37 -88q36 -33 100 -33q81 0 160 48q35 22 35 53v262q-9 -11 -21.5 -21t-23.5 -17 t-31 -15t-31.5 -12.5t-38 -13.5t-38.5 -13q-79 -26 -113 -62q-35 -35 -35 -88z" />
<glyph unicode="b" horiz-adv-x="1212" d="M141 0l2 1495h269v-571q53 56 129 87t159 31q137 0 238 -69.5t152 -188.5t51 -272q0 -242 -128 -386t-327 -144q-172 0 -299 108q-22 18 -37 16q-21 0 -39 -34l-35 -72h-135zM406 375q0 -89 47 -131q71 -68 170 -68q116 0 177.5 91.5t61.5 248.5q0 159 -57 248t-166 92 h-10q-85 0 -152 -51q-71 -54 -71 -152v-278z" />
<glyph unicode="c" horiz-adv-x="1050" d="M74 510q0 236 141.5 385t380.5 149q76 0 144.5 -18t116.5 -47.5t71 -47.5t41 -36l-86 -121l-12 9l-18 13.5t-21.5 14t-27.5 15t-31.5 13.5t-37.5 12.5t-42 7.5t-48 3q-137 0 -216 -98.5t-79 -251.5q0 -161 86.5 -256.5t214.5 -95.5q32 0 63.5 6.5t53.5 14t47.5 22 t36.5 22t31.5 23t21.5 16.5l88 -119q-156 -165 -401 -165q-233 0 -375.5 146t-142.5 384z" />
<glyph unicode="d" horiz-adv-x="1214" d="M74 498q0 242 122 394t334 152q115 0 203 -51q39 -22 70 -53v555h268l2 -1495h-188l-19 59q-9 33 -26 33q-16 2 -49 -24q-102 -86 -263 -86q-203 0 -328.5 143t-125.5 373zM352 500q0 -154 62 -243t178 -89q98 0 164 57q53 47 53 127v310q0 83 -61 137q-61 55 -147 55h-9 q-108 -3 -172 -88q-68 -92 -68 -266z" />
<glyph unicode="e" horiz-adv-x="1128" d="M74 510q0 247 138 389.5t368 142.5q221 0 342 -145q113 -135 113 -361q0 -17 -1 -34q0 -19 -4 -47h-684q3 -130 66 -205q73 -90 217 -90q85 0 165 31.5t136 80.5l92 -114q-66 -72 -176.5 -124t-251.5 -52q-232 0 -367 129q-153 147 -153 399zM350 604l426 2 q-6 266 -196 266q-96 0 -158.5 -68.5t-71.5 -199.5z" />
<glyph unicode="f" horiz-adv-x="843" d="M51 856v160l86 6q76 6 76 84v76q0 157 93.5 241t256.5 84q78 0 153 -21.5t115 -47.5l-63 -140q-72 35 -131 35q-78 0 -117 -43.5t-39 -156.5v-109h297v-168h-297v-856h-272v856h-158z" />
<glyph unicode="g" horiz-adv-x="1159" d="M41 -193q0 82 52 137t132 79q-110 63 -110 167q0 73 51.5 128.5t163.5 74.5v6q-98 28 -159.5 104t-61.5 189q0 159 125.5 254.5t326.5 95.5q59 0 166 -20q36 -4 49 -4q19 0 66 14l235 74l51 -107l-149 -102q-17 -11 -51 -18q84 -81 84 -207q0 -131 -88 -213 q-116 -107 -365 -119q-96 -3 -150.5 -23.5t-54.5 -68.5q0 -41 44.5 -58.5t162.5 -21.5l189 -10q190 -10 274 -70q89 -63 98 -178q1 -13 1 -26q0 -38 -9 -73q-12 -47 -49.5 -93.5t-97.5 -80t-159.5 -54.5t-227.5 -21q-277 0 -408 67t-131 178zM279 -135q0 -74 72 -111.5 t227 -38.5q158 0 240 39q79 37 79 96q0 52 -39 74q-42 23 -178 29l-150 8q-89 4 -182 19l-6 -5q-6 -5 -10 -8t-11 -10t-12 -13.5t-11 -16t-10 -18.5t-6.5 -20.5t-2.5 -23.5zM377 690q0 -92 49.5 -145t138.5 -53q90 0 138.5 52.5t48.5 145.5q0 92 -47 146.5t-138 54.5 q-88 0 -139 -53.5t-51 -147.5z" />
<glyph unicode="h" horiz-adv-x="1200" d="M141 0v1495h275l-2 -582q30 33 90 72q102 57 219 57q167 0 256 -106q88 -101 88 -301v-635h-274v655q0 91 -37 133q-41 50 -121 50q-92 0 -162 -62q-30 -27 -44.5 -57t-14.5 -78v-641h-273z" />
<glyph unicode="i" horiz-adv-x="598" d="M137 1343q0 66 47 108t115 42q69 0 115.5 -42t46.5 -108t-46.5 -107.5t-115.5 -41.5q-68 0 -115 41.5t-47 107.5zM164 0v1024h272v-1024h-272z" />
<glyph unicode="j" horiz-adv-x="620" d="M-55 -362l41 157q36 -10 67 -10q68 0 102.5 39t34.5 139v1061h269v-1100q0 -157 -83 -242t-214 -85q-112 0 -217 41zM164 1346q0 66 47 108.5t115 42.5q69 0 116 -42.5t47 -108.5t-47 -109t-116 -43q-67 0 -114.5 43t-47.5 109z" />
<glyph unicode="k" horiz-adv-x="1198" d="M141 0v1495h269v-772q0 -85 -17 -162q61 71 168 170q76 73 155 146t120 110l41 37h253l-321 -307q-31 -28 -31 -59q0 -27 23 -64l360 -594h-293l-233 395q-38 60 -41 131l-107 -104q-50 -50 -64.5 -92.5t-14.5 -134.5v-195h-267z" />
<glyph unicode="l" horiz-adv-x="686" d="M139 305v1190h267v-1141q0 -104 34.5 -144t104.5 -40q31 0 71 10l27 -151q-29 -15 -85 -28t-118 -13q-144 0 -222.5 83t-78.5 234z" />
<glyph unicode="m" horiz-adv-x="1828" d="M135 0v1024h189l20 -72q11 -40 33 -40q14 0 33 16q73 58 141.5 86t161.5 28q172 0 268 -116q17 -21 33 -21q12 0 35 19q79 61 150.5 89.5t164.5 28.5q151 0 241.5 -96t90.5 -260v-684h-273v653q0 89 -32 129q-39 54 -121 54q-72 0 -142 -50q-35 -26 -53 -58.5t-18 -84.5 v-643l-269 -2v655q0 84 -32 127q-43 56 -127 56q-88 0 -156 -54q-34 -27 -49.5 -58t-15.5 -83v-643h-273z" />
<glyph unicode="n" horiz-adv-x="1198" d="M135 0v1024h189l20 -72q9 -31 27.5 -36t38.5 14q73 57 145.5 84.5t163.5 27.5q179 0 266 -116q80 -103 80 -291v-635h-274v655q0 90 -35 133q-44 50 -125 50q-90 0 -158 -54q-34 -26 -49.5 -57.5t-15.5 -85.5v-641h-273z" />
<glyph unicode="o" horiz-adv-x="1175" d="M74 510q0 250 139 392t375 142t375 -142t139 -392t-139 -390t-375 -140t-375 140t-139 390zM354 508q0 -345 234 -348q114 0 173.5 90.5t59.5 257.5q0 168 -59.5 261.5t-173.5 94.5q-114 0 -174 -94t-60 -262z" />
<glyph unicode="p" horiz-adv-x="1214" d="M135 -389v1413h189l22 -72q12 -30 31 -30q17 -2 39 16q127 106 291 106q197 0 315 -153q113 -140 113 -379q0 -121 -36 -223t-100 -172q-126 -135 -323 -135q-166 0 -270 96v-467h-271zM399 338q0 -78 68 -127q56 -43 138 -43h11q114 3 177 90q63 86 63 252 q0 155 -55 240q-58 98 -176 98q-89 0 -164 -60q-62 -56 -62 -157v-293z" />
<glyph unicode="q" horiz-adv-x="1212" d="M76 512q0 119 34.5 220.5t96.5 172.5q120 136 315 139q151 0 269 -88q22 -18 34 -16q20 0 31 33l18 51h203v-1413h-272v489q-51 -55 -125.5 -87.5t-157.5 -32.5q-185 0 -305 126q-68 71 -104.5 176.5t-36.5 229.5zM352 508q0 -161 68 -254q64 -85 172 -88h7q91 0 161 70 q27 24 39 54.5t12 84.5v297q0 48 -9.5 73.5t-31.5 47.5q-65 57 -160 57q-117 0 -184 -82q-74 -93 -74 -260z" />
<glyph unicode="r" horiz-adv-x="817" d="M135 0v1024h191l18 -82q9 -31 28 -34t42 22q54 54 110 82t135 28q39 0 78 -10t51 -18l-36 -195q-59 17 -111 17q-114 0 -174 -54q-59 -50 -59 -164v-616h-273z" />
<glyph unicode="s" horiz-adv-x="993" d="M53 139l86 127q72 -50 167.5 -83t195.5 -33q76 0 127 29t51 87q0 18 -6.5 34t-15 27.5t-27 23t-32.5 18.5t-41.5 16.5t-45 14.5t-51.5 14.5t-53 15.5q-56 17 -95.5 32.5t-84 41.5t-71.5 57.5t-45 78.5t-18 105q0 77 31 135.5t85.5 93.5t123 52.5t149.5 17.5 q235 0 406 -141l-80 -117q-54 37 -132.5 65t-168.5 28q-82 0 -130 -26t-48 -81q0 -18 6 -33t22.5 -27.5t29.5 -21t43 -19.5t47 -16t57.5 -17t58.5 -17q73 -20 123 -41.5t100 -57t75.5 -90t25.5 -127.5q0 -156 -110.5 -240.5t-283.5 -84.5q-281 0 -471 159z" />
<glyph unicode="t" horiz-adv-x="806" d="M35 858v162q37 6 64 12.5t50 17.5t37.5 20.5t27 28.5t19.5 35.5t13.5 47t10.5 57t9 72.5h191v-287h278v-166h-278v-518q0 -97 40.5 -133.5t110.5 -36.5q65 0 113 12l22 -151q-21 -13 -87.5 -29t-135.5 -16q-160 0 -245 81t-85 228v563h-155z" />
<glyph unicode="u" horiz-adv-x="1187" d="M123 387v637h274v-623q0 -104 39 -160.5t131 -56.5q91 0 156 58q28 25 40.5 53.5t12.5 73.5v655h273v-1024h-185l-22 74q-8 35 -33 35q-15 0 -35 -17q-70 -58 -141 -85t-160 -27q-155 0 -252 102q-98 106 -98 305z" />
<glyph unicode="v" horiz-adv-x="1136" d="M23 1024h294l242 -686q21 -64 33 -117h2q19 72 37 115l252 688h219l-397 -1024h-283z" />
<glyph unicode="w" horiz-adv-x="1671" d="M23 1024h272l219 -702l31 -101h4l37 103l133 364q17 41 17 83v9q-2 48 -27 127l-39 117h266l219 -709q16 -51 27 -92h4l26 94l215 707h209l-325 -1024h-293l-170 516q-4 -15 -23 -70l-161 -446h-293z" />
<glyph unicode="x" horiz-adv-x="1167" d="M33 0l344 463q17 25 23 38t4 31t-17 41l-326 451h306l208 -291q7 -11 19.5 -31.5t13.5 -21.5l35 53l211 291h250l-322 -436q-25 -36 -25 -60t27 -65l338 -463h-309l-225 317q-21 31 -35 58q-31 -47 -39 -58l-229 -317h-252z" />
<glyph unicode="y" horiz-adv-x="1083" d="M0 -352l37 147q3 0 19 -3.5t35.5 -6.5t37.5 -4q12 -1 23 -1q162 0 229 132q26 51 26 98v12q-4 52 -53 183q-129 330 -336 819h289q180 -481 219 -621q26 -95 39 -165q134 379 254 786h230q-78 -241 -201 -580q-144 -406 -240 -575q-81 -141 -176 -203q-93 -61 -213 -61 h-8q-117 0 -211 43z" />
<glyph unicode="z" horiz-adv-x="1064" d="M90 0v137l490 660q33 41 47 57h-531v168l838 2v-135l-477 -653l-49 -60h569l-2 -176h-885z" />
<glyph unicode="{" horiz-adv-x="829" d="M29 543v155q54 3 94.5 15t66.5 28.5t42.5 43t24 51.5t9.5 62t1 66.5t-4 72.5q-1 8 -1 12l-10 153q-6 103 11 172t65 117q83 80 229 80q62 0 193 -23l-9 -147q-143 31 -213 -33q-29 -27 -41 -67t-11 -87.5t5 -109.5l8 -107q3 -53 5 -102t-9 -93.5t-32 -80t-64.5 -62 t-107.5 -38.5q64 -12 107.5 -39t64.5 -62.5t32 -80t9 -93.5t-5 -102l-8 -109q-4 -60 -5 -107t11 -87.5t41 -67.5q68 -65 213 -33l9 -147q-116 -21 -193 -21q-145 0 -225 74q-93 83 -80 291l10 158q9 135 0 187q-20 110 -130 144q-43 14 -103 17z" />
<glyph unicode="|" horiz-adv-x="612" d="M213 -410v1979h186v-1979h-186z" />
<glyph unicode="}" horiz-adv-x="819" d="M68 -307l8 147q146 -31 213 33q29 27 41 67.5t11 87.5t-5 107l-8 109q-2 53 -4 102t9 93.5t32.5 80t64.5 62.5t107 39q-79 15 -127 52t-64 86.5t-21 111t3 126.5l8 107q5 62 6 109.5t-11.5 87.5t-41.5 67q-67 64 -213 33l-8 147q131 23 192 23q146 0 229 -80 q50 -48 67 -117t9 -172l-10 -153q-9 -137 1 -190q21 -109 131 -144q44 -13 104 -17v-155q-54 -3 -95 -14t-67.5 -29t-43.5 -42.5t-24.5 -53t-9.5 -61t-1 -67.5t4 -72q1 -6 1 -9l10 -158q16 -205 -80 -291q-80 -74 -225 -74q-77 0 -192 21z" />
<glyph unicode="~" horiz-adv-x="1286" d="M90 588q44 117 126 181.5t187 64.5q27 0 55.5 -5t49.5 -11t51 -19t44.5 -20t46.5 -24t42 -22q43 -23 68 -34.5t62.5 -23t70.5 -11.5q51 0 90.5 28t69.5 101l143 -80q-45 -121 -125.5 -188.5t-187.5 -67.5q-46 0 -100.5 16.5t-82 29.5t-84.5 42q-7 3 -36.5 18.5 t-39.5 20.5t-34.5 16t-39 15t-35 8t-38.5 4q-51 0 -90.5 -27t-69.5 -98z" />
<glyph unicode="&#xa1;" horiz-adv-x="653" d="M162 879q0 69 48 115t118 46q68 0 116 -46.5t48 -114.5q0 -67 -48 -114.5t-116 -47.5q-69 0 -117.5 47.5t-48.5 114.5zM174 -414l23 543l41 432h178l41 -432l22 -543h-305z" />
<glyph unicode="&#xa2;" horiz-adv-x="995" d="M90 526q0 197 126 344.5t329 173.5v156h145v-156q139 -16 260 -104l-84 -135q-90 62 -176 69v-698q103 7 195 72l82 -125q-121 -93 -277 -113v-188h-145v184q-208 20 -331.5 165t-123.5 355zM338 528q0 -122 54.5 -211t152.5 -122v663q-99 -33 -153 -121t-54 -209z" />
<glyph unicode="&#xa3;" horiz-adv-x="1159" d="M104 623v174h187l-49 155q-31 102 -31 174q0 87 32.5 152t90.5 103.5t132 57.5t163 19q100 0 200 -35l-10 -137q-82 17 -127 17q-104 0 -163.5 -48t-59.5 -141q0 -59 29 -147l55 -170h369v-174h-320q7 -70 2 -125q-21 -187 -164 -260l2 -11q70 25 133 25q68 0 158 -34 t148 -34q79 0 161 82l111 -104q-35 -73 -103 -125.5t-157 -52.5q-54 0 -108 14.5t-93.5 32.5t-101.5 32.5t-131 14.5q-122 0 -291 -80l-59 172q128 41 193 122t65 177q0 70 -23 154h-240z" />
<glyph unicode="&#xa4;" horiz-adv-x="1220" d="M111 311l104 105q-86 127 -86 272q0 146 86 273l-104 104l125 125l104 -105q125 86 270 86q149 0 271 -86l104 105l125 -125l-104 -104q86 -127 86 -273q0 -145 -86 -272l104 -105l-125 -125l-104 105q-123 -86 -271 -86q-145 0 -270 86l-104 -105zM328 688 q0 -123 81.5 -208.5t200.5 -84.5q118 -1 201.5 85t81.5 208q2 122 -81.5 208t-201.5 85q-119 1 -200.5 -84.5t-81.5 -208.5z" />
<glyph unicode="&#xa5;" horiz-adv-x="1310" d="M39 1438h305l291 -555q31 -64 61 -131q5 13 54 125l272 561h240l-304 -582h179v-162h-263l-24 -45q-25 -52 -35 -90h322v-164h-330v-395h-279v395h-340v164h332q-9 39 -28 72l-35 63h-269v162h177z" />
<glyph unicode="&#xa6;" horiz-adv-x="610" d="M213 -410v928h184v-928h-184zM213 733v836h184v-836h-184z" />
<glyph unicode="&#xa7;" horiz-adv-x="1165" d="M131 530q0 103 55.5 175t147.5 112q-158 108 -158 293q0 86 35 154t94 109t130 62t149 21q122 0 226.5 -55t174.5 -144l-96 -90q-57 59 -133.5 93t-159.5 34t-134.5 -42t-51.5 -122q0 -27 7.5 -50.5t26 -43.5t34.5 -34t50 -31.5t54 -27t64 -28.5t65 -28q44 -20 71 -32.5 t65.5 -34t62 -40.5t50.5 -47t41.5 -57t24.5 -68t10 -84q0 -97 -51.5 -172t-140.5 -121q83 -55 128.5 -124.5t45.5 -169.5q-1 -105 -62 -183.5t-154.5 -116.5t-201.5 -38q-131 0 -258.5 63.5t-204.5 161.5l94 102q72 -75 166 -119.5t195 -44.5q83 0 136.5 39t53.5 115 q0 31 -13 57t-31.5 45t-53.5 39t-63.5 33.5t-77.5 34.5q-24 10 -37 16q-41 18 -60 26t-57.5 27t-58.5 31t-52 33.5t-49 40t-39 45.5t-32.5 53.5t-18.5 61t-8 71.5zM362 571q0 -29 8 -53t27.5 -45t38 -36t55 -34t62 -31t75 -33.5t79.5 -35.5q100 52 100 174q0 29 -13.5 55 t-31.5 44.5t-55 41t-66 37t-82.5 40.5t-87.5 44q-50 -21 -79.5 -64t-29.5 -104z" />
<glyph unicode="&#xa8;" horiz-adv-x="1282" d="M66 1690q0 56 39 94.5t94 38.5q57 0 96 -38.5t39 -94.5t-39 -96t-96 -40q-55 0 -94 40t-39 96zM508 1690q0 56 39 94.5t94 38.5q57 0 96 -38.5t39 -94.5t-39 -96t-96 -40q-55 0 -94 40t-39 96z" />
<glyph unicode="&#xa9;" horiz-adv-x="1757" d="M131 721q0 205 94 373t266 266t388 98q163 0 303 -57.5t237.5 -156.5t153 -234.5t55.5 -288.5q0 -206 -95 -376t-267 -269t-387 -99q-161 0 -301 58t-237.5 157.5t-153.5 237t-56 291.5zM297 715q0 -268 159.5 -438.5t422.5 -170.5q262 0 422.5 170.5t160.5 440.5 q0 127 -38.5 238t-110 194.5t-182 131.5t-246.5 48q-265 0 -426.5 -172t-161.5 -442zM487 717q0 187 114 307.5t302 120.5q60 0 115 -14.5t93 -38.5t56.5 -38t32.5 -28l-70 -98q-86 69 -188 69t-164 -73q-69 -75 -69 -205q0 -128 68.5 -203.5t168.5 -75.5q26 0 51 5t42.5 11 t38 17.5t29 18t24.5 19t18 13.5l70 -96q-14 -16 -35 -33.5t-60.5 -42.5t-98 -41t-124.5 -16q-184 0 -298 116.5t-116 305.5z" />
<glyph unicode="&#xab;" horiz-adv-x="1046" d="M131 578l299 385h156l-211 -385l211 -385h-156zM514 578l299 385h154l-211 -385l211 -385h-154z" />
<glyph unicode="&#xac;" horiz-adv-x="1363" d="M90 670v196h1165v-610h-188v414h-977z" />
<glyph unicode="&#xad;" horiz-adv-x="903" d="M131 453v200h641v-200h-641z" />
<glyph unicode="&#xae;" horiz-adv-x="1757" d="M131 721q0 205 94 373t266 266t388 98q163 0 303 -57.5t237.5 -156.5t153 -234.5t55.5 -288.5q0 -206 -95 -376t-267 -269t-387 -99q-161 0 -301 58t-237.5 157.5t-153.5 237t-56 291.5zM297 715q0 -268 159.5 -438.5t422.5 -170.5q262 0 422.5 170.5t160.5 440.5 q0 127 -38.5 238t-110 194.5t-182 131.5t-246.5 48q-265 0 -426.5 -172t-161.5 -442zM573 342v799h353q131 0 205.5 -59t74.5 -164q0 -69 -43.5 -119t-120.5 -70q-8 -3 -8 -10t8 -10q72 -27 115 -117l119 -248h-193l-96 213q-25 59 -55 78q-36 29 -107 29h-84v-322h-168z M741 778h144q74 0 110.5 35.5t36.5 89.5q0 56 -35 89.5t-112 33.5h-144v-248z" />
<glyph unicode="&#xaf;" horiz-adv-x="1224" d="M90 1569v166h715v-166h-715z" />
<glyph unicode="&#xb0;" horiz-adv-x="835" d="M111 1133q0 137 95.5 233t231.5 96q135 0 232.5 -96.5t97.5 -232.5q0 -135 -97.5 -231.5t-232.5 -96.5q-136 0 -231.5 96.5t-95.5 231.5zM285 1133q0 -65 44.5 -110.5t108.5 -45.5t109 45.5t45 110.5q0 66 -44.5 111.5t-109.5 45.5q-64 0 -108.5 -45.5t-44.5 -111.5z" />
<glyph unicode="&#xb1;" horiz-adv-x="1308" d="M111 0v199h1087v-199h-1087zM111 762v199h442v432h203v-432h442v-199h-442v-410h-203v410h-442z" />
<glyph unicode="&#xb4;" horiz-adv-x="1273" d="M29 1530l118 309h256l-233 -309h-141z" />
<glyph unicode="&#xb6;" horiz-adv-x="1525" d="M178 991q2 185 118.5 316t283.5 131h684v-1764h-191v1590h-233v-1590h-189v873h-71q-109 0 -201 59t-146 161t-55 224z" />
<glyph unicode="&#xb7;" horiz-adv-x="591" d="M131 651q0 68 48 115t116 47q69 0 117.5 -46.5t48.5 -115.5q0 -67 -48.5 -114.5t-117.5 -47.5q-68 0 -116 47.5t-48 114.5z" />
<glyph unicode="&#xb8;" horiz-adv-x="1232" d="M31 -336l55 72q86 -66 176 -66q45 0 72.5 19.5t27.5 52.5t-22.5 51.5t-56.5 18.5q-49 0 -90 -33l-82 76l143 198l92 -39l-51 -84q-6 -12 -2 -16q7 -7 18 -4q8 2 27 2q78 0 133 -47t55 -127q0 -89 -69 -136.5t-170 -47.5q-74 0 -142 30.5t-114 79.5z" />
<glyph unicode="&#xbb;" horiz-adv-x="1042" d="M76 193l211 385l-211 385h153l299 -385l-299 -385h-153zM457 193l211 385l-211 385h155l299 -385l-299 -385h-155z" />
<glyph unicode="&#xbf;" horiz-adv-x="1120" d="M70 27q0 171 128.5 284.5t325.5 134.5l17 170h192l27 -294q-199 -1 -305.5 -80.5t-106.5 -208.5q0 -120 81 -187t208 -67q90 0 177.5 37.5t158.5 105.5l108 -112q-93 -102 -222 -161t-271 -59q-220 0 -359 103q-159 115 -159 334zM473 907q0 67 48 113.5t116 46.5 q67 0 114.5 -46.5t47.5 -113.5t-47.5 -112t-114.5 -45q-68 0 -116 45t-48 112z" />
<glyph unicode="&#xc0;" horiz-adv-x="1495" d="M31 0l575 1438h283l575 -1438h-301l-155 403h-598l-156 -403h-223zM483 592h451l-184 477q-28 86 -39 129h-4q-17 -70 -39 -129zM506 1858h256l119 -310h-142z" />
<glyph unicode="&#xc1;" horiz-adv-x="1495" d="M31 0l575 1438h283l575 -1438h-301l-155 403h-598l-156 -403h-223zM483 592h451l-184 477q-28 86 -39 129h-4q-17 -70 -39 -129zM606 1546l119 309h256l-233 -309h-142z" />
<glyph unicode="&#xc2;" horiz-adv-x="1495" d="M31 0l575 1438h283l575 -1438h-301l-155 403h-598l-156 -403h-223zM406 1540l278 318h127l279 -318h-125l-215 143l-224 -143h-120zM483 592h451l-184 477q-28 86 -39 129h-4q-17 -70 -39 -129z" />
<glyph unicode="&#xc3;" horiz-adv-x="1495" d="M31 0l575 1438h283l575 -1438h-301l-155 403h-598l-156 -403h-223zM438 1540h111q14 98 72 98q5 0 10 -0.5t11 -2.5t10 -3.5t11 -5t10.5 -5.5t12 -7.5t11.5 -7.5t13 -8.5t13 -8.5q85 -57 143 -57q55 0 94.5 24t60.5 66.5t30.5 87.5t11.5 98h-113q-15 -98 -73 -98 q-27 0 -107 47q-3 2 -14.5 9.5t-15.5 10t-14.5 9t-15.5 9t-14.5 7t-15.5 6.5t-14.5 4.5t-16.5 3.5t-16 1q-54 0 -93.5 -24.5t-60 -67t-30 -87.5t-11.5 -98zM483 592h451l-184 477q-28 86 -39 129h-4q-17 -70 -39 -129z" />
<glyph unicode="&#xc4;" horiz-adv-x="1495" d="M31 0l575 1438h283l575 -1438h-301l-155 403h-598l-156 -403h-223zM389 1706q0 56 38.5 94.5t94.5 38.5q57 0 96 -38.5t39 -94.5t-39 -95.5t-96 -39.5q-55 0 -94 39.5t-39 95.5zM483 592h451l-184 477q-28 86 -39 129h-4q-17 -70 -39 -129zM831 1706q0 55 39 94t95 39 q57 0 96 -38.5t39 -94.5t-39 -95.5t-96 -39.5q-55 0 -94.5 39.5t-39.5 95.5z" />
<glyph unicode="&#xc5;" horiz-adv-x="1495" d="M31 0l575 1438h283l575 -1438h-301l-155 403h-598l-156 -403h-223zM483 592h451l-184 477q-28 86 -39 129h-4q-17 -70 -39 -129zM510 1733q0 94 66.5 144t173.5 50q108 0 174.5 -49.5t66.5 -144.5q0 -94 -66.5 -143.5t-174.5 -49.5q-107 0 -173.5 50.5t-66.5 142.5z M649 1733q-1 -42 27 -67.5t74 -25.5t74 25t28 68t-28 68.5t-74 25.5t-73.5 -25.5t-27.5 -68.5z" />
<glyph unicode="&#xc6;" horiz-adv-x="2004" d="M8 0l758 1438h1141v-199h-654v-395h584v-205h-584v-436h654v-203h-938v614q-190 -23 -336 -118q-96 -64 -171 -149.5t-143 -213.5l-67 -133h-244zM604 684q28 19 70 43q127 71 295 90v410q0 47 -33 47q-29 0 -51 -45z" />
<glyph unicode="&#xc7;" horiz-adv-x="1417" d="M80 717q0 217 89.5 386t250.5 262t368 93q83 0 161 -20t131.5 -46.5t107.5 -67t79.5 -65t55.5 -57.5l-125 -131q-161 178 -373 178q-203 0 -324.5 -146t-121.5 -386q0 -236 125.5 -382.5t333.5 -146.5q57 0 112 13.5t91 30t75.5 44.5t55 42t38.5 36l121 -131 q-32 -36 -74 -71.5t-106 -75.5t-151 -66t-181 -30l-31 -50q-6 -12 -2 -16q7 -7 19 -4q8 2 26 2q78 0 133.5 -47t55.5 -127q0 -89 -69.5 -136.5t-170.5 -47.5q-74 0 -142 30.5t-114 79.5l56 72q86 -66 176 -66q45 0 72.5 19.5t27.5 52.5q0 32 -23 51t-57 19q-49 0 -90 -33 l-82 76l94 131q-180 20 -319.5 113.5t-219 254t-79.5 363.5z" />
<glyph unicode="&#xc8;" horiz-adv-x="1253" d="M166 0v1438h979v-199h-694v-395h624v-205h-624v-436h694v-203h-979zM420 1858h256l119 -310h-142z" />
<glyph unicode="&#xc9;" horiz-adv-x="1253" d="M166 0v1438h979v-199h-694v-395h624v-205h-624v-436h694v-203h-979zM520 1546l119 309h256l-233 -309h-142z" />
<glyph unicode="&#xca;" horiz-adv-x="1253" d="M166 0v1438h979v-199h-694v-395h624v-205h-624v-436h694v-203h-979zM319 1540l279 318h127l279 -318h-125l-215 143l-224 -143h-121z" />
<glyph unicode="&#xcb;" horiz-adv-x="1253" d="M166 0v1438h979v-199h-694v-395h624v-205h-624v-436h694v-203h-979zM303 1706q0 56 38.5 94.5t94.5 38.5q57 0 96 -38.5t39 -94.5t-39 -95.5t-96 -39.5q-55 0 -94 39.5t-39 95.5zM745 1706q0 55 39 94t95 39q57 0 96 -38.5t39 -94.5t-39 -95.5t-96 -39.5 q-55 0 -94.5 39.5t-39.5 95.5z" />
<glyph unicode="&#xcc;" horiz-adv-x="661" d="M88 1858h256l119 -310h-141zM186 0v1438h289v-1438h-289z" />
<glyph unicode="&#xcd;" horiz-adv-x="661" d="M186 0v1438h289v-1438h-289zM188 1546l119 309h256l-233 -309h-142z" />
<glyph unicode="&#xce;" horiz-adv-x="661" d="M-10 1540l278 318h127l279 -318h-125l-215 143l-223 -143h-121zM186 0v1438h289v-1438h-289z" />
<glyph unicode="&#xcf;" horiz-adv-x="661" d="M-27 1706q0 56 38.5 94.5t94.5 38.5q57 0 96.5 -38.5t39.5 -94.5t-39.5 -95.5t-96.5 -39.5q-55 0 -94 39.5t-39 95.5zM186 0v1438h289v-1438h-289zM416 1706q0 56 39 94.5t94 38.5q57 0 96 -38.5t39 -94.5t-39 -95.5t-96 -39.5q-55 0 -94 39.5t-39 95.5z" />
<glyph unicode="&#xd0;" horiz-adv-x="1505" d="M-18 639v172h168v627h473q368 0 573 -176q108 -96 168.5 -237t60.5 -310q0 -166 -63 -308t-172 -237q-201 -170 -567 -170h-473v639h-168zM436 193h180q248 0 375 124q133 136 133 400q0 266 -137 403q-126 123 -371 123h-180v-432h307v-172h-307v-446z" />
<glyph unicode="&#xd1;" horiz-adv-x="1540" d="M152 0v1438h280l690 -942q39 -60 62 -103l-6 129v916h211v-1438h-246l-733 1008q-14 16 -54 86q4 -82 4 -99v-995h-208zM506 1540q1 41 7 77.5t19.5 74.5t34.5 64.5t55 43.5t78 17q7 0 14.5 -1t14 -2t15 -4.5t13 -5t14 -6.5t13 -7t14 -8.5t13 -8t14 -9t13.5 -8.5 q80 -47 106 -47q59 0 74 98h112q-9 -276 -196 -276q-58 0 -143 57q-63 42 -87 47q-8 2 -16 2q-58 0 -72 -98h-110z" />
<glyph unicode="&#xd2;" horiz-adv-x="1587" d="M80 719q0 218 91 386.5t253.5 260.5t370.5 92q207 0 369 -92t252.5 -260.5t90.5 -386.5t-91 -386.5t-253 -260.5t-368 -92q-207 0 -370 92t-254 260.5t-91 386.5zM379 717q0 -238 109.5 -386.5t304.5 -148.5q196 0 305.5 148.5t109.5 386.5q0 154 -44.5 273.5t-139 192 t-227.5 72.5q-197 0 -307.5 -149.5t-110.5 -388.5zM551 1858h256l119 -310h-142z" />
<glyph unicode="&#xd3;" horiz-adv-x="1587" d="M80 719q0 218 91 386.5t253.5 260.5t370.5 92q207 0 369 -92t252.5 -260.5t90.5 -386.5t-91 -386.5t-253 -260.5t-368 -92q-207 0 -370 92t-254 260.5t-91 386.5zM379 717q0 -238 109.5 -386.5t304.5 -148.5q196 0 305.5 148.5t109.5 386.5q0 154 -44.5 273.5t-139 192 t-227.5 72.5q-197 0 -307.5 -149.5t-110.5 -388.5zM651 1546l119 309h256l-233 -309h-142z" />
<glyph unicode="&#xd4;" horiz-adv-x="1587" d="M80 719q0 218 91 386.5t253.5 260.5t370.5 92q207 0 369 -92t252.5 -260.5t90.5 -386.5t-91 -386.5t-253 -260.5t-368 -92q-207 0 -370 92t-254 260.5t-91 386.5zM379 717q0 -238 109.5 -386.5t304.5 -148.5q196 0 305.5 148.5t109.5 386.5q0 154 -44.5 273.5t-139 192 t-227.5 72.5q-197 0 -307.5 -149.5t-110.5 -388.5zM453 1540l278 318h127l279 -318h-125l-215 143l-224 -143h-120z" />
<glyph unicode="&#xd5;" horiz-adv-x="1587" d="M80 719q0 218 91 386.5t253.5 260.5t370.5 92q207 0 369 -92t252.5 -260.5t90.5 -386.5t-91 -386.5t-253 -260.5t-368 -92q-207 0 -370 92t-254 260.5t-91 386.5zM379 717q0 -238 109.5 -386.5t304.5 -148.5q196 0 305.5 148.5t109.5 386.5q0 154 -44.5 273.5t-139 192 t-227.5 72.5q-197 0 -307.5 -149.5t-110.5 -388.5zM483 1540h111q14 98 72 98q5 0 10 -0.5t11 -2.5t10 -3.5t11 -5t10.5 -5.5t12 -7.5t11.5 -7.5t13 -8.5t13 -8.5q85 -57 143 -57q55 0 94.5 24t60.5 66.5t30.5 87.5t11.5 98h-113q-15 -98 -73 -98q-27 0 -107 47 q-3 2 -14.5 9.5t-15.5 10t-14.5 9t-15.5 9t-14.5 7t-15.5 6.5t-14.5 4.5t-16.5 3.5t-16 1q-54 0 -93.5 -24.5t-60 -67t-30 -87.5t-11.5 -98z" />
<glyph unicode="&#xd6;" horiz-adv-x="1587" d="M80 719q0 218 91 386.5t253.5 260.5t370.5 92q207 0 369 -92t252.5 -260.5t90.5 -386.5t-91 -386.5t-253 -260.5t-368 -92q-207 0 -370 92t-254 260.5t-91 386.5zM379 717q0 -238 109.5 -386.5t304.5 -148.5q196 0 305.5 148.5t109.5 386.5q0 154 -44.5 273.5t-139 192 t-227.5 72.5q-197 0 -307.5 -149.5t-110.5 -388.5zM436 1706q0 56 39 94.5t94 38.5q57 0 96.5 -38.5t39.5 -94.5t-39.5 -95.5t-96.5 -39.5q-55 0 -94 39.5t-39 95.5zM879 1706q0 56 38.5 94.5t94.5 38.5q57 0 96 -38.5t39 -94.5t-39 -95.5t-96 -39.5q-55 0 -94 39.5 t-39 95.5z" />
<glyph unicode="&#xd7;" horiz-adv-x="1095" d="M70 248l338 338l-336 336l139 139l336 -336l338 338l141 -141l-338 -338l336 -336l-139 -139l-336 335l-338 -338z" />
<glyph unicode="&#xd8;" horiz-adv-x="1583" d="M80 721q0 217 90 385.5t252.5 261t370.5 92.5q207 0 368.5 -92.5t251.5 -261t90 -385.5q0 -218 -90.5 -387t-252 -261.5t-367.5 -92.5q-207 0 -369.5 92.5t-253 261.5t-90.5 387zM377 719q0 -139 41 -248l661 662q-108 124 -284 124q-197 0 -307.5 -149.5t-110.5 -388.5z M506 305q109 -125 285 -125q196 0 305.5 149.5t109.5 389.5q0 141 -39 248z" />
<glyph unicode="&#xd9;" horiz-adv-x="1497" d="M141 549v889h293v-883q0 -194 86.5 -286.5t265.5 -92.5q359 0 359 383v879h217v-891q0 -271 -157.5 -419t-442.5 -148q-293 0 -457 146.5t-164 422.5zM541 1858h256l118 -310h-141z" />
<glyph unicode="&#xda;" horiz-adv-x="1497" d="M141 549v889h293v-883q0 -194 86.5 -286.5t265.5 -92.5q359 0 359 383v879h217v-891q0 -271 -157.5 -419t-442.5 -148q-293 0 -457 146.5t-164 422.5zM641 1546l119 309h256l-234 -309h-141z" />
<glyph unicode="&#xdb;" horiz-adv-x="1497" d="M141 549v889h293v-883q0 -194 86.5 -286.5t265.5 -92.5q359 0 359 383v879h217v-891q0 -271 -157.5 -419t-442.5 -148q-293 0 -457 146.5t-164 422.5zM442 1540l279 318h127l278 -318h-125l-215 143l-223 -143h-121z" />
<glyph unicode="&#xdc;" horiz-adv-x="1497" d="M141 549v889h293v-883q0 -194 86.5 -286.5t265.5 -92.5q359 0 359 383v879h217v-891q0 -271 -157.5 -419t-442.5 -148q-293 0 -457 146.5t-164 422.5zM424 1706q0 56 39 94.5t94 38.5q57 0 96 -38.5t39 -94.5t-39 -95.5t-96 -39.5q-55 0 -94 39.5t-39 95.5zM866 1706 q0 56 39 94.5t94 38.5q57 0 96.5 -38.5t39.5 -94.5t-39.5 -95.5t-96.5 -39.5q-55 0 -94 39.5t-39 95.5z" />
<glyph unicode="&#xdd;" horiz-adv-x="1343" d="M18 1438h314l323 -555q46 -90 60 -123h6q28 74 53 121l307 557h242l-446 -789q-26 -44 -36 -84.5t-10 -99.5v-465h-288v459q0 65 -7 100.5t-30 71.5zM559 1546l119 309h256l-234 -309h-141z" />
<glyph unicode="&#xde;" horiz-adv-x="1288" d="M162 0v1495h287v-209h233q266 0 410 -135q125 -122 125 -322q0 -209 -138 -331q-142 -127 -397 -127h-233v-371h-287zM449 563h196q129 0 203 75t74 189q0 117 -74 193t-203 76h-196v-533z" />
<glyph unicode="&#xe0;" horiz-adv-x="1134" d="M86 238q0 116 75.5 187t237.5 116q58 16 82.5 23.5t64 20.5t55.5 23t35 25t25.5 32.5t6.5 39.5v8q0 70 -37 104q-42 39 -127 39t-166 -33q-44 -17 -83 -41t-54 -39l-84 138q18 18 64.5 46t99.5 50q140 65 294 65q180 0 269 -92q90 -94 90 -301v-395q0 -56 22 -78 q19 -22 60 -22q29 0 57 8l23 -133q-72 -45 -168 -45q-123 0 -195 82q-18 22 -35 22q-14 -2 -43 -20q-43 -27 -73.5 -42.5t-84 -29.5t-112.5 -14q-131 0 -215 67.5t-84 188.5zM324 1448h256l118 -309h-141zM344 268q0 -56 37 -88q36 -33 100 -33q81 0 160 48q35 22 35 53v262 q-9 -11 -21.5 -21t-23.5 -17t-31 -15t-31.5 -12.5t-38 -13.5t-38.5 -13q-79 -26 -113 -62q-35 -35 -35 -88z" />
<glyph unicode="&#xe1;" horiz-adv-x="1134" d="M86 238q0 116 75.5 187t237.5 116q58 16 82.5 23.5t64 20.5t55.5 23t35 25t25.5 32.5t6.5 39.5v8q0 70 -37 104q-42 39 -127 39t-166 -33q-44 -17 -83 -41t-54 -39l-84 138q18 18 64.5 46t99.5 50q140 65 294 65q180 0 269 -92q90 -94 90 -301v-395q0 -56 22 -78 q19 -22 60 -22q29 0 57 8l23 -133q-72 -45 -168 -45q-123 0 -195 82q-18 22 -35 22q-14 -2 -43 -20q-43 -27 -73.5 -42.5t-84 -29.5t-112.5 -14q-131 0 -215 67.5t-84 188.5zM344 268q0 -56 37 -88q36 -33 100 -33q81 0 160 48q35 22 35 53v262q-9 -11 -21.5 -21t-23.5 -17 t-31 -15t-31.5 -12.5t-38 -13.5t-38.5 -13q-79 -26 -113 -62q-35 -35 -35 -88zM424 1137l119 309h256l-234 -309h-141z" />
<glyph unicode="&#xe2;" horiz-adv-x="1134" d="M86 238q0 116 75.5 187t237.5 116q58 16 82.5 23.5t64 20.5t55.5 23t35 25t25.5 32.5t6.5 39.5v8q0 70 -37 104q-42 39 -127 39t-166 -33q-44 -17 -83 -41t-54 -39l-84 138q18 18 64.5 46t99.5 50q140 65 294 65q180 0 269 -92q90 -94 90 -301v-395q0 -56 22 -78 q19 -22 60 -22q29 0 57 8l23 -133q-72 -45 -168 -45q-123 0 -195 82q-18 22 -35 22q-14 -2 -43 -20q-43 -27 -73.5 -42.5t-84 -29.5t-112.5 -14q-131 0 -215 67.5t-84 188.5zM225 1130l279 318h127l278 -318h-125l-215 144l-223 -144h-121zM344 268q0 -56 37 -88 q36 -33 100 -33q81 0 160 48q35 22 35 53v262q-9 -11 -21.5 -21t-23.5 -17t-31 -15t-31.5 -12.5t-38 -13.5t-38.5 -13q-79 -26 -113 -62q-35 -35 -35 -88z" />
<glyph unicode="&#xe3;" horiz-adv-x="1134" d="M86 238q0 116 75.5 187t237.5 116q58 16 82.5 23.5t64 20.5t55.5 23t35 25t25.5 32.5t6.5 39.5v8q0 70 -37 104q-42 39 -127 39t-166 -33q-44 -17 -83 -41t-54 -39l-84 138q18 18 64.5 46t99.5 50q140 65 294 65q180 0 269 -92q90 -94 90 -301v-395q0 -56 22 -78 q19 -22 60 -22q29 0 57 8l23 -133q-72 -45 -168 -45q-123 0 -195 82q-18 22 -35 22q-14 -2 -43 -20q-43 -27 -73.5 -42.5t-84 -29.5t-112.5 -14q-131 0 -215 67.5t-84 188.5zM256 1130h111q15 99 71 99q15 0 34 -8t29 -14.5t40 -26.5q86 -58 143 -58q55 0 94.5 24.5 t60.5 66.5t30.5 87.5t11.5 98.5h-113q-16 -99 -74 -99q-6 0 -12.5 1t-14.5 4.5t-14 6t-16.5 8t-15 8.5t-17 10.5t-16.5 9.5q-34 22 -47 30t-40 18.5t-50 10.5q-54 0 -93.5 -24.5t-60 -67t-30 -87.5t-11.5 -98zM344 268q0 -56 37 -88q36 -33 100 -33q81 0 160 48q35 22 35 53 v262q-9 -11 -21.5 -21t-23.5 -17t-31 -15t-31.5 -12.5t-38 -13.5t-38.5 -13q-79 -26 -113 -62q-35 -35 -35 -88z" />
<glyph unicode="&#xe4;" horiz-adv-x="1134" d="M86 238q0 116 75.5 187t237.5 116q58 16 82.5 23.5t64 20.5t55.5 23t35 25t25.5 32.5t6.5 39.5v8q0 70 -37 104q-42 39 -127 39t-166 -33q-44 -17 -83 -41t-54 -39l-84 138q18 18 64.5 46t99.5 50q140 65 294 65q180 0 269 -92q90 -94 90 -301v-395q0 -56 22 -78 q19 -22 60 -22q29 0 57 8l23 -133q-72 -45 -168 -45q-123 0 -195 82q-18 22 -35 22q-14 -2 -43 -20q-43 -27 -73.5 -42.5t-84 -29.5t-112.5 -14q-131 0 -215 67.5t-84 188.5zM209 1296q0 56 39 95t94 39q57 0 96 -39t39 -95t-39 -95.5t-96 -39.5q-55 0 -94 39.5t-39 95.5z M344 268q0 -56 37 -88q36 -33 100 -33q81 0 160 48q35 22 35 53v262q-9 -11 -21.5 -21t-23.5 -17t-31 -15t-31.5 -12.5t-38 -13.5t-38.5 -13q-79 -26 -113 -62q-35 -35 -35 -88zM651 1296q0 56 39 95t94 39q57 0 96.5 -39t39.5 -95t-39.5 -95.5t-96.5 -39.5q-55 0 -94 39.5 t-39 95.5z" />
<glyph unicode="&#xe5;" horiz-adv-x="1134" d="M86 238q0 116 75.5 187t237.5 116q58 16 82.5 23.5t64 20.5t55.5 23t35 25t25.5 32.5t6.5 39.5v8q0 70 -37 104q-42 39 -127 39t-166 -33q-44 -17 -83 -41t-54 -39l-84 138q18 18 64.5 46t99.5 50q140 65 294 65q180 0 269 -92q90 -94 90 -301v-395q0 -56 22 -78 q19 -22 60 -22q29 0 57 8l23 -133q-72 -45 -168 -45q-123 0 -195 82q-18 22 -35 22q-14 -2 -43 -20q-43 -27 -73.5 -42.5t-84 -29.5t-112.5 -14q-131 0 -215 67.5t-84 188.5zM328 1323q0 94 66 144.5t173 50.5q108 0 175 -50t67 -145q0 -94 -66.5 -143.5t-175.5 -49.5 q-107 0 -173 50.5t-66 142.5zM344 268q0 -56 37 -88q36 -33 100 -33q81 0 160 48q35 22 35 53v262q-9 -11 -21.5 -21t-23.5 -17t-31 -15t-31.5 -12.5t-38 -13.5t-38.5 -13q-79 -26 -113 -62q-35 -35 -35 -88zM467 1323q-1 -42 26.5 -67t73.5 -25t74.5 25t28.5 67 q0 43 -28.5 68.5t-74.5 25.5t-73 -25.5t-27 -68.5z" />
<glyph unicode="&#xe6;" horiz-adv-x="1693" d="M86 238q0 130 92 204q71 56 234 103q146 40 200 70.5t54 91.5q0 148 -164 151q-90 0 -176.5 -38.5t-128.5 -76.5l-84 138q52 50 189 106t278 55q189 0 256 -122q119 122 321 122q218 0 334.5 -140.5t110.5 -387.5q0 -7 -1 -15.5t-2 -21t-2 -20.5h-673q6 -133 67 -209 q77 -92 215 -92q158 0 289 114l96 -108q-64 -72 -176.5 -126t-251.5 -54q-221 0 -356 135q-19 16 -39 16t-43 -20q-151 -129 -350 -129q-124 0 -206.5 66t-82.5 188zM342 268q0 -57 37.5 -87.5t101.5 -30.5q54 0 115 24.5t90 56.5q24 24 10 56q-34 90 -34 215 q-6 -7 -12.5 -13t-15 -12t-15 -10t-18.5 -9.5t-18 -8.5t-21.5 -8t-21 -7t-24 -8t-24.5 -8q-79 -26 -111 -58q-39 -36 -39 -92zM928 602l420 4q0 130 -50 198t-143 68q-97 0 -159 -70.5t-68 -199.5z" />
<glyph unicode="&#xe7;" horiz-adv-x="1050" d="M74 510q0 236 141.5 385t380.5 149q76 0 144.5 -18t116.5 -47.5t71 -47.5t41 -36l-86 -121l-12 9l-18 13.5t-21.5 14t-27.5 15t-31.5 13.5t-37.5 12.5t-42 7.5t-48 3q-137 0 -216 -98.5t-79 -251.5q0 -161 86.5 -256.5t214.5 -95.5q32 0 63.5 6.5t53.5 14t47.5 22 t36.5 22t31.5 23t21.5 16.5l88 -119q-142 -151 -360 -163l-31 -52q-6 -12 -2 -16q7 -7 18 -4q8 2 27 2q78 0 133.5 -47t55.5 -127q0 -89 -69.5 -136.5t-170.5 -47.5q-74 0 -142 30.5t-114 79.5l55 72q86 -66 176 -66q45 0 73 19.5t28 52.5q0 32 -23 51t-57 19q-49 0 -90 -33 l-82 76l94 129q-201 26 -319.5 168t-118.5 358z" />
<glyph unicode="&#xe8;" horiz-adv-x="1128" d="M74 510q0 247 138 389.5t368 142.5q221 0 342 -145t112 -395q0 -19 -4 -47h-684q3 -130 66 -205q73 -90 217 -90q85 0 165 31.5t136 80.5l92 -114q-66 -72 -176.5 -124t-251.5 -52q-232 0 -367 129q-153 147 -153 399zM336 1448h256l119 -309h-142zM350 604l426 2 q-6 266 -196 266q-96 0 -158.5 -68.5t-71.5 -199.5z" />
<glyph unicode="&#xe9;" horiz-adv-x="1128" d="M74 510q0 247 138 389.5t368 142.5q221 0 342 -145t112 -395q0 -19 -4 -47h-684q3 -130 66 -205q73 -90 217 -90q85 0 165 31.5t136 80.5l92 -114q-66 -72 -176.5 -124t-251.5 -52q-232 0 -367 129q-153 147 -153 399zM350 604l426 2q-6 266 -196 266q-96 0 -158.5 -68.5 t-71.5 -199.5zM436 1137l119 309h256l-233 -309h-142z" />
<glyph unicode="&#xea;" horiz-adv-x="1128" d="M74 510q0 247 138 389.5t368 142.5q221 0 342 -145t112 -395q0 -19 -4 -47h-684q3 -130 66 -205q73 -90 217 -90q85 0 165 31.5t136 80.5l92 -114q-66 -72 -176.5 -124t-251.5 -52q-232 0 -367 129q-153 147 -153 399zM238 1130l278 318h127l279 -318h-125l-215 144 l-224 -144h-120zM350 604l426 2q-6 266 -196 266q-96 0 -158.5 -68.5t-71.5 -199.5z" />
<glyph unicode="&#xeb;" horiz-adv-x="1128" d="M74 510q0 247 138 389.5t368 142.5q221 0 342 -145t112 -395q0 -19 -4 -47h-684q3 -130 66 -205q73 -90 217 -90q85 0 165 31.5t136 80.5l92 -114q-66 -72 -176.5 -124t-251.5 -52q-232 0 -367 129q-153 147 -153 399zM219 1296q0 56 39 95t94 39q57 0 96 -39t39 -95 t-39 -95.5t-96 -39.5q-55 0 -94 39.5t-39 95.5zM350 604l426 2q-6 266 -196 266q-96 0 -158.5 -68.5t-71.5 -199.5zM662 1296q0 56 39 95t94 39q57 0 96 -39t39 -95t-39 -95.5t-96 -39.5q-55 0 -94 39.5t-39 95.5z" />
<glyph unicode="&#xec;" horiz-adv-x="538" d="M18 1438h256l121 -310h-141zM123 0v1024h274v-1024h-274z" />
<glyph unicode="&#xed;" horiz-adv-x="536" d="M141 0v1024h275v-1024h-275zM147 1137l119 309h256l-233 -309h-142z" />
<glyph unicode="&#xee;" horiz-adv-x="477" d="M-100 1110l278 317h129l279 -317h-127l-215 141l-224 -141h-120zM111 0v1024h274v-1024h-274z" />
<glyph unicode="&#xef;" horiz-adv-x="540" d="M-53 1280q0 56 39 94.5t96 38.5q56 0 94.5 -38.5t38.5 -94.5t-39 -95.5t-94 -39.5q-57 0 -96 39.5t-39 95.5zM133 0v1024h275v-1024h-275zM326 1280q0 56 39 94.5t94 38.5q57 0 96 -38.5t39 -94.5t-39 -95.5t-96 -39.5q-55 0 -94 39.5t-39 95.5z" />
<glyph unicode="&#xf0;" horiz-adv-x="1165" d="M74 510q0 248 135.5 391t357.5 143q50 0 97 -14.5t75 -34.5q30 -17 41 -10q11 8 0 37q-59 118 -166 211l-139 -121l-80 94l119 103q-100 66 -221 108l139 88q121 -37 207 -86l117 101l80 -95l-91 -77q169 -134 254.5 -342.5t85.5 -466.5q0 -257 -134.5 -408t-366.5 -151 t-371 140t-139 390zM354 508q0 -164 61 -255t171 -93q112 0 173.5 91.5t61.5 256.5q0 167 -61.5 261t-173.5 95q-110 0 -171 -94.5t-61 -261.5z" />
<glyph unicode="&#xf1;" horiz-adv-x="1198" d="M135 0v1024h189l20 -72q9 -31 27.5 -36t38.5 14q73 57 145.5 84.5t163.5 27.5q179 0 266 -116q80 -103 80 -291v-635h-274v655q0 90 -35 133q-44 50 -125 50q-90 0 -158 -54q-34 -26 -49.5 -57.5t-15.5 -85.5v-641h-273zM326 1130h110q15 99 72 99q5 0 10 -0.5t11 -2.5 t10 -3.5t11 -5t10.5 -5.5t12 -7.5t11.5 -7.5t13 -8.5t13 -8.5q86 -58 144 -58q55 0 94.5 24.5t60 66.5t30 87t11.5 99h-112q-16 -99 -74 -99q-26 0 -107 48q-34 22 -47 30t-40 18.5t-50 10.5q-44 0 -78 -17t-55 -43.5t-34.5 -64.5t-19.5 -74.5t-7 -77.5z" />
<glyph unicode="&#xf2;" horiz-adv-x="1175" d="M74 510q0 250 139 392t375 142t375 -142t139 -392t-139 -390t-375 -140t-375 140t-139 390zM346 1448h256l119 -309h-141zM354 508q0 -345 234 -348q114 0 173.5 90.5t59.5 257.5q0 168 -59.5 261.5t-173.5 94.5q-114 0 -174 -94t-60 -262z" />
<glyph unicode="&#xf3;" horiz-adv-x="1175" d="M74 510q0 250 139 392t375 142t375 -142t139 -392t-139 -390t-375 -140t-375 140t-139 390zM354 508q0 -345 234 -348q114 0 173.5 90.5t59.5 257.5q0 168 -59.5 261.5t-173.5 94.5q-114 0 -174 -94t-60 -262zM446 1137l119 309h256l-233 -309h-142z" />
<glyph unicode="&#xf4;" horiz-adv-x="1175" d="M74 510q0 250 139 392t375 142t375 -142t139 -392t-139 -390t-375 -140t-375 140t-139 390zM246 1130l278 318h127l279 -318h-125l-215 144l-223 -144h-121zM354 508q0 -345 234 -348q114 0 173.5 90.5t59.5 257.5q0 168 -59.5 261.5t-173.5 94.5q-114 0 -174 -94 t-60 -262z" />
<glyph unicode="&#xf5;" horiz-adv-x="1175" d="M74 510q0 250 139 392t375 142t375 -142t139 -392t-139 -390t-375 -140t-375 140t-139 390zM279 1130h110q15 99 72 99q5 0 10 -0.5t11 -2.5t10 -3.5t11 -5t10.5 -5.5t12 -7.5t11.5 -7.5t13 -8.5t13 -8.5q86 -58 144 -58q55 0 94.5 24.5t60 66.5t30 87t11.5 99h-112 q-16 -99 -74 -99q-26 0 -107 48q-34 22 -47 30t-40 18.5t-50 10.5q-44 0 -78 -17t-55 -43.5t-34.5 -64.5t-19.5 -74.5t-7 -77.5zM354 508q0 -345 234 -348q114 0 173.5 90.5t59.5 257.5q0 168 -59.5 261.5t-173.5 94.5q-114 0 -174 -94t-60 -262z" />
<glyph unicode="&#xf6;" horiz-adv-x="1175" d="M74 510q0 250 139 392t375 142t375 -142t139 -392t-139 -390t-375 -140t-375 140t-139 390zM229 1296q0 56 39 95t94 39q57 0 96.5 -39t39.5 -95t-39.5 -95.5t-96.5 -39.5q-55 0 -94 39.5t-39 95.5zM354 508q0 -345 234 -348q114 0 173.5 90.5t59.5 257.5 q0 168 -59.5 261.5t-173.5 94.5q-114 0 -174 -94t-60 -262zM672 1296q0 56 39 95t94 39q57 0 96 -39t39 -95t-39 -95.5t-96 -39.5q-55 0 -94 39.5t-39 95.5z" />
<glyph unicode="&#xf7;" horiz-adv-x="1333" d="M106 551v197h1121v-197h-1121zM516 219q0 62 43.5 106t104.5 44q63 0 106 -44t43 -106t-43 -105.5t-106 -43.5q-61 0 -104.5 43.5t-43.5 105.5zM516 1077q0 62 43.5 106t104.5 44q63 0 106 -44t43 -106t-43 -105.5t-106 -43.5q-61 0 -104.5 43.5t-43.5 105.5z" />
<glyph unicode="&#xf8;" horiz-adv-x="1175" d="M74 510q0 249 140 391.5t374 142.5q236 0 375 -142t139 -392t-139 -390t-375 -140q-235 0 -374.5 140t-139.5 390zM350 510q0 -68 12 -123l402 387q-65 94 -176 94q-114 0 -176 -94.5t-62 -263.5zM410 248q64 -92 178 -92q115 0 176 92t61 262q0 73 -14 125z" />
<glyph unicode="&#xf9;" horiz-adv-x="1187" d="M123 387v637h274v-623q0 -104 39 -160.5t131 -56.5q91 0 156 58q28 25 40.5 53.5t12.5 73.5v655h273v-1024h-185l-22 74q-8 35 -33 35q-15 0 -35 -17q-70 -58 -141 -85t-160 -27q-155 0 -252 102q-98 106 -98 305zM346 1448h256l119 -309h-141z" />
<glyph unicode="&#xfa;" horiz-adv-x="1187" d="M123 387v637h274v-623q0 -104 39 -160.5t131 -56.5q91 0 156 58q28 25 40.5 53.5t12.5 73.5v655h273v-1024h-185l-22 74q-8 35 -33 35q-15 0 -35 -17q-70 -58 -141 -85t-160 -27q-155 0 -252 102q-98 106 -98 305zM446 1137l119 309h256l-233 -309h-142z" />
<glyph unicode="&#xfb;" horiz-adv-x="1187" d="M123 387v637h274v-623q0 -104 39 -160.5t131 -56.5q91 0 156 58q28 25 40.5 53.5t12.5 73.5v655h273v-1024h-185l-22 74q-8 35 -33 35q-15 0 -35 -17q-70 -58 -141 -85t-160 -27q-155 0 -252 102q-98 106 -98 305zM248 1130l278 318h127l279 -318h-125l-215 144 l-223 -144h-121z" />
<glyph unicode="&#xfc;" horiz-adv-x="1187" d="M123 387v637h274v-623q0 -104 39 -160.5t131 -56.5q91 0 156 58q28 25 40.5 53.5t12.5 73.5v655h273v-1024h-185l-22 74q-8 35 -33 35q-15 0 -35 -17q-70 -58 -141 -85t-160 -27q-155 0 -252 102q-98 106 -98 305zM229 1296q0 56 39 95t94 39q57 0 96.5 -39t39.5 -95 t-39.5 -95.5t-96.5 -39.5q-55 0 -94 39.5t-39 95.5zM672 1296q0 56 39 95t94 39q57 0 96 -39t39 -95t-39 -95.5t-96 -39.5q-55 0 -94 39.5t-39 95.5z" />
<glyph unicode="&#xfd;" horiz-adv-x="1083" d="M0 -352l37 147q3 0 19 -3.5t35.5 -6.5t37.5 -4q180 -10 252 131q30 58 26 110t-53 183q-129 330 -336 819h289q180 -481 219 -621q26 -95 39 -165q134 379 254 786h230q-78 -241 -201 -580q-144 -406 -240 -575q-81 -141 -176.5 -203.5t-220.5 -60.5q-117 0 -211 43z M426 1137l119 309h256l-234 -309h-141z" />
<glyph unicode="&#xfe;" horiz-adv-x="1171" d="M121 -389v1884h270v-545q121 94 262 94q200 0 327.5 -146t127.5 -386q0 -245 -134.5 -388.5t-348.5 -143.5q-120 0 -230 69l-4 -438h-270zM391 309q0 -60 58 -106q56 -43 141 -43q115 0 178 90t63 262q0 169 -59.5 259.5t-169.5 90.5q-92 0 -149 -47q-62 -52 -62 -121 v-385z" />
<glyph unicode="&#xff;" horiz-adv-x="1083" d="M0 -352l37 147q3 0 19 -3.5t35.5 -6.5t37.5 -4q180 -10 252 131q30 58 26 110t-53 183q-129 330 -336 819h289q180 -481 219 -621q26 -95 39 -165q134 379 254 786h230q-78 -241 -201 -580q-144 -406 -240 -575q-81 -141 -176.5 -203.5t-220.5 -60.5q-117 0 -211 43z M209 1296q0 56 39 95t94 39q57 0 96 -39t39 -95t-39 -95.5t-96 -39.5q-55 0 -94 39.5t-39 95.5zM651 1296q0 56 39 95t94 39q57 0 96.5 -39t39.5 -95t-39.5 -95.5t-96.5 -39.5q-55 0 -94 39.5t-39 95.5z" />
<glyph unicode="&#x152;" horiz-adv-x="2009" d="M88 719q0 215 90.5 379t251.5 252t369 88h1093v-199h-659v-395h590v-205h-590v-436h659v-203h-843h-250q-207 0 -368 88t-252 252t-91 379zM385 717q0 -233 108.5 -374.5t305.5 -141.5h147v1038h-145q-131 0 -226 -67t-142.5 -184t-47.5 -271z" />
<glyph unicode="&#x153;" horiz-adv-x="1865" d="M74 510q0 250 138 392t372 142q237 0 374 -149q138 147 369 147q219 0 341 -142.5t116 -389.5q-1 -7 -1.5 -14.5t-1 -19t-1.5 -21.5l-688 2q6 -122 55 -195q75 -106 229 -106q84 0 161 32t134 82l98 -110q-66 -71 -179 -124.5t-253 -53.5q-238 0 -374 139l-7 6 q-138 -147 -374 -147q-233 0 -370.5 140t-137.5 390zM352 508q0 -169 58.5 -258t173.5 -90q115 0 175 90.5t60 257.5q0 168 -60.5 261.5t-174.5 94.5q-113 0 -172.5 -94t-59.5 -262zM1096 604l428 2q0 122 -50 194t-149 72q-97 0 -160 -70.5t-69 -197.5z" />
<glyph unicode="&#x178;" horiz-adv-x="1343" d="M18 1438h314l323 -555q46 -90 60 -123h6q28 74 53 121l307 557h242l-446 -789q-26 -44 -36 -84.5t-10 -99.5v-465h-288v459q0 65 -7 100.5t-30 71.5zM342 1706q0 56 39 94.5t94 38.5q57 0 96 -38.5t39 -94.5t-39 -95.5t-96 -39.5q-55 0 -94 39.5t-39 95.5zM784 1706 q0 55 39 94t95 39q57 0 96 -38.5t39 -94.5t-39 -95.5t-96 -39.5q-55 0 -94.5 39.5t-39.5 95.5z" />
<glyph unicode="&#x2c6;" horiz-adv-x="1280" d="M33 1524l278 317h127l279 -317h-125l-217 143l-221 -143h-121z" />
<glyph unicode="&#x2dc;" horiz-adv-x="1247" d="M49 1524h111q14 98 71 98q15 0 34 -8t29 -14.5t40 -26.5q85 -57 143 -57q55 0 94.5 24t60.5 66.5t30.5 87.5t11.5 98h-113q-15 -98 -74 -98q-26 0 -106 47q-34 22 -47 30t-40 18.5t-50 10.5q-54 0 -93.5 -24.5t-60 -67t-30 -87t-11.5 -97.5z" />
<glyph unicode="&#x2000;" horiz-adv-x="963" />
<glyph unicode="&#x2001;" horiz-adv-x="1927" />
<glyph unicode="&#x2002;" horiz-adv-x="963" />
<glyph unicode="&#x2003;" horiz-adv-x="1927" />
<glyph unicode="&#x2004;" horiz-adv-x="642" />
<glyph unicode="&#x2005;" horiz-adv-x="481" />
<glyph unicode="&#x2006;" horiz-adv-x="321" />
<glyph unicode="&#x2007;" horiz-adv-x="321" />
<glyph unicode="&#x2008;" horiz-adv-x="240" />
<glyph unicode="&#x2009;" horiz-adv-x="385" />
<glyph unicode="&#x200a;" horiz-adv-x="107" />
<glyph unicode="&#x2010;" horiz-adv-x="903" d="M131 453v200h641v-200h-641z" />
<glyph unicode="&#x2011;" horiz-adv-x="903" d="M131 453v200h641v-200h-641z" />
<glyph unicode="&#x2012;" horiz-adv-x="903" d="M131 453v200h641v-200h-641z" />
<glyph unicode="&#x2013;" horiz-adv-x="1406" d="M162 457v184h1083v-184h-1083z" />
<glyph unicode="&#x2014;" horiz-adv-x="1959" d="M162 455v186h1636v-186h-1636z" />
<glyph unicode="&#x2018;" horiz-adv-x="411" d="M18 1188q0 140 86 242q83 96 236 137l22 -80q-163 -54 -184 -141q-6 -32 4 -48q4 -7 10.5 -12t12.5 -7.5t18 -7t19 -7.5q84 -40 84 -129q0 -58 -41 -97t-105 -39q-72 0 -117 50.5t-45 138.5z" />
<glyph unicode="&#x2019;" horiz-adv-x="432" d="M49 1069q163 51 184 141q6 30 -4 50q-5 8 -13.5 13t-23 10t-22.5 9q-84 40 -84 127q0 59 40 98t105 39q72 0 117 -50t45 -138q0 -146 -92 -246q-78 -91 -229 -135z" />
<glyph unicode="&#x201a;" horiz-adv-x="407" d="M39 -188q149 50 170 139q9 30 -4 49q-5 8 -12.5 13t-24.5 11t-23 9q-82 39 -82 127q0 59 40 98t104 39q73 0 117.5 -50t44.5 -138q3 -138 -88 -242q-74 -90 -220 -135z" />
<glyph unicode="&#x201c;" horiz-adv-x="780" d="M18 1188q0 122 66 215q76 110 242 160l22 -80q-149 -50 -170 -137q-8 -32 4 -50q4 -6 11.5 -11t13 -7.5t17.5 -7t18 -6.5q84 -40 84 -129q0 -58 -41 -97t-105 -39q-72 0 -117 50.5t-45 138.5zM410 1188q0 124 65 215q80 111 244 160l22 -80q-149 -50 -170 -137 q-8 -32 4 -50q4 -6 11 -11t12 -7.5t17.5 -7t17.5 -6.5q84 -40 84 -129q0 -58 -40 -97t-104 -39q-73 0 -118 50.5t-45 138.5z" />
<glyph unicode="&#x201d;" horiz-adv-x="780" d="M39 1071q149 50 170 139q7 30 -2 47q-4 6 -11.5 11.5t-13.5 8t-18.5 7.5t-18.5 8q-82 39 -82 127q0 59 40 98t104 39q73 0 117.5 -50t44.5 -138q3 -130 -80 -235q-80 -96 -228 -142zM430 1071q151 50 172 139q6 27 -4 47q-5 8 -12.5 13.5t-24.5 12.5t-22 9 q-84 40 -84 127q0 59 39.5 98t103.5 39q73 0 118.5 -50t45.5 -138q0 -135 -82 -235q-75 -94 -225 -142z" />
<glyph unicode="&#x201e;" horiz-adv-x="811" d="M39 -188q149 50 170 139q8 28 -4 47q-4 7 -10.5 12.5t-12.5 8t-18 7t-19 7.5q-82 39 -82 127q0 59 40 98t104 39q73 0 117.5 -50t44.5 -138q3 -132 -78 -232q-79 -98 -230 -145zM430 -188q151 50 172 139q6 28 -4 47q-5 9 -13 14.5t-24 11.5t-22 9q-84 40 -84 127 q0 59 39.5 98t103.5 39q73 0 118.5 -50t45.5 -138q0 -133 -78 -232q-79 -98 -229 -145z" />
<glyph unicode="&#x2022;" horiz-adv-x="698" d="M111 612q0 100 69.5 170t167.5 70q100 0 171 -70t71 -170q0 -99 -71 -169t-171 -70q-98 0 -167.5 69.5t-69.5 169.5z" />
<glyph unicode="&#x2026;" horiz-adv-x="1234" d="M90 141q0 67 47.5 113.5t114.5 46.5q68 0 116 -46.5t48 -113.5q0 -66 -48 -111.5t-116 -45.5q-66 0 -114 45.5t-48 111.5z" />
<glyph unicode="&#x202f;" horiz-adv-x="385" />
<glyph unicode="&#x2039;" horiz-adv-x="651" d="M131 578l299 385h166l-211 -385l211 -385h-166z" />
<glyph unicode="&#x203a;" horiz-adv-x="651" d="M55 193l211 385l-211 385h166l299 -385l-299 -385h-166z" />
<glyph unicode="&#x205f;" horiz-adv-x="481" />
<glyph unicode="&#x20ac;" horiz-adv-x="1290" d="M90 496v163h143q-2 20 -2 64q0 41 2 61h-143v164h170q60 232 231.5 371t403.5 139q112 0 213 -36t170 -89l-90 -141q-126 82 -264 82q-142 0 -242 -84t-141 -242h452l-47 -164h-430q-2 -23 -2 -65v-60h397l-43 -163h-329q39 -165 141.5 -249.5t255.5 -84.5q141 0 264 74 l74 -140q-164 -119 -395 -119t-397 141t-224 378h-168z" />
<glyph unicode="&#x2122;" horiz-adv-x="1392" d="M94 1339v99h533v-99h-197v-514h-139v514h-197zM719 825v613h149l185 -316l172 316h149v-613h-137v445l-172 -314h-61l-177 308v-439h-108z" />
<glyph unicode="&#x25fc;" horiz-adv-x="1024" d="M0 0v1024h1024v-1024h-1024z" />
</font>
</defs>
</svg>
